PathFileType	4	(X/Y/Z)	21_coords_data.trc
DataRate	CameraRate	NumFrames	NumMarkers	Units	OrigDataRate	OrigDataStartFrame	OrigNumFrames
30.0	30.0	6	21	m	30.0	47	65
Frame#	Time	THUMB_TIP	THUMB_IP	THUMB_MCP	THUMB_CMC	INDEX_TIP	INDEX_DIP	INDEX_PIP	INDEX_MCP	MIDDLE_TIP	MIDDLE_DIP	MIDDLE_PIP	MIDDLE_MCP	RING_TIP	RING_DIP	RING_PIP	RING_MCP	PINKY_TIP	PINKY_DIP	PINKY_PIP	PINKY_MCP	WRIST
X1	Y1	Z1	X2	Y2	Z2	X3	Y3	Z3	X4	Y4	Z4	X5	Y5	Z5	X6	Y6	Z6	X7	Y7	Z7	X8	Y8	Z8	X9	Y9	Z9	X10	Y10	Z10	X11	Y11	Z11	X12	Y12	Z12	X13	Y13	Z13	X14	Y14	Z14	X15	Y15	Z15	X16	Y16	Z16	X17	Y17	Z17	X18	Y18	Z18	X19	Y19	Z19	X20	Y20	Z20	X21	Y21	Z21
45	1.5333333333333266	0.4998074739847784	0.0011835282678558379	-0.169355171717803	0.49389966339006364	-0.0053101093945372435	-0.1481200488340868	0.4820851692252729	-0.013279964609560047	-0.12044841831686387	0.47575263850071414	-0.022513070151685577	-0.07726811242783055	0.583365756955372	0.03681630503031308	-0.1513845977856652	0.5681662919865746	0.03474142105426603	-0.1417580137005265	0.5474666537325128	0.0313462816066874	-0.12790132443928975	0.5146097129374592	0.018050239117661127	-0.10429469846859346	0.6028497085556832	0.04012682348033503	-0.1208615468074048	0.5862876625923082	0.04057027680344916	-0.1135470418578356	0.5601201221114824	0.03960861383283942	-0.10075076976338154	0.5232835628654107	0.02010490082212757	-0.0846628549604484	0.606054802941357	0.03305875601663588	-0.0957509222580884	0.5894395102428593	0.03276398369391509	-0.08876199116520966	0.5663668702985367	0.03088827115573256	-0.07957967296805707	0.5311242097826494	0.014319018998501187	-0.0687106529242808	0.6027000248404981	0.01880068092949916	-0.0658201429730857	0.5863521453222722	0.0165444235270773	-0.06127524057681927	0.5660214845825249	0.012930580428520244	-0.0574783483022992	0.5320149033983128	0.0011836523845566438	-0.05493953584535344	0.4622830810018609	-0.023011742144276925	-0.051989820119430985
46	1.5666666666666598	0.49785335204762116	0.00280422367996358	-0.16949229710152647	0.49253145670302423	-0.004288316426850902	-0.14829387016049178	0.48151902996962204	-0.012896711435397279	-0.12048304505913454	0.4756585450325497	-0.022504587835757484	-0.07731785737996705	0.583389092962451	0.040326432734658746	-0.1508928716362986	0.5684966573684287	0.036209751422839775	-0.14144468148924827	0.5480586830164853	0.030975612983849765	-0.12777344042668215	0.5153715232226099	0.017097188046032108	-0.10426652655320612	0.6034290001459612	0.04528336268191191	-0.11908402073117219	0.5867463884499216	0.043276966879193135	-0.11232644402927727	0.5604179983158766	0.039598019987066024	-0.10038111972583386	0.5238852044554948	0.019168701589774018	-0.084755952732265	0.6067086402233606	0.037538892937981294	-0.09303546638727961	0.589917769577389	0.034997741311747266	-0.08698491175462442	0.5667522306112461	0.030596496649081262	-0.07897449173895266	0.5316374391417239	0.013261295797320383	-0.06891650657883786	0.6027824113073763	0.02167019583250751	-0.06232940158036643	0.5864590695015554	0.01755404709455355	-0.05923007393434776	0.5662897845411684	0.012265180796588782	-0.05677246199000763	0.532344590885842	0.0001701292638597307	-0.05525029014589372	0.462283081001861	-0.023011742144276925	-0.051989820119430985
47	1.599999999999993	0.49649881106156957	0.0044105915042330635	-0.16941253349413576	0.4914985400660701	-0.003193733246618091	-0.14831344500540805	0.48107841303023235	-0.012400854964551788	-0.12046618549521287	0.4755871796639125	-0.0224562313816159	-0.07735440333270227	0.5831930443832805	0.04263194863302511	-0.150390870876706	0.5685704573672732	0.03719278369762813	-0.14119329327361702	0.548321082333088	0.03083480886026857	-0.12771928868357707	0.515762818581454	0.016601043496112133	-0.10424599579490945	0.603464027203468	0.048922575027501636	-0.11768976269955805	0.5868701205584775	0.045085968185168634	-0.1115316209185741	0.5605750708940249	0.03948611723134421	-0.1002789953387847	0.5241892732726079	0.018686645971616067	-0.08479985945305046	0.6068083899659507	0.04069551064828214	-0.09092768228101561	0.5900641989037608	0.03642609911861183	-0.08578918144291103	0.5669916787163307	0.0303134720294842	-0.07868463492185179	0.5319339895717767	0.01261861674403364	-0.0690632336584805	0.6024031628625673	0.02391493924007826	-0.05984500673494503	0.5863296065809886	0.018363198343572362	-0.057890790400711434	0.56640793808963	0.011897633981973743	-0.05642941399251483	0.5325471190284397	-0.0004920481397815424	-0.05552158117355016	0.4622830810018609	-0.023011742144276925	-0.051989820119430985
48	1.6333333333333262	0.49571384451611356	0.0057143341863420405	-0.16923749131251192	0.49091707288330455	-0.0022776594894158286	-0.14823465771822453	0.4808613039456746	-0.011984936078343944	-0.12042332383617116	0.47554804055301236	-0.022395040182398462	-0.0773734810413021	0.5830525945119718	0.04384068690052367	-0.15002200483254025	0.5685689491657593	0.037755306042568715	-0.14101133575090313	0.5484060396209816	0.03088192294757164	-0.12766129767910273	0.5159374637613214	0.01642459843554467	-0.1042004058887328	0.6033253019109013	0.0510919224408275	-0.11680052545384167	0.586880619436214	0.04608436975352659	-0.11109992597741652	0.5606748521075064	0.039368550629021115	-0.1002571826806039	0.5243429529768004	0.018478797950794545	-0.08477302110825113	0.6067190658547481	0.04253308642426068	-0.08963208358949759	0.59012917339057	0.037114439707007674	-0.085113927352644	0.5671735039473537	0.030027750923168228	-0.07855678914342606	0.5321079561147907	0.012245771654234794	-0.06912655041466276	0.6019670761920164	0.02536506161102592	-0.05827377780200477	0.5861741592840348	0.018865543499381077	-0.057116176897551385	0.5664638207716546	0.011679080098396577	-0.05629805801029458	0.5326814658009488	-0.000940083427548366	-0.05567143568488703	0.4622830810018608	-0.023011742144276925	-0.051989820119430985
49	1.6666666666666594	0.4953237526019487	0.006568799710297668	-0.16907279162056432	0.49064504984271506	-0.001658502411261864	-0.1481342806827894	0.48078237349761643	-0.011684209273725932	-0.12036680299359737	0.47556141150591025	-0.022336768685288444	-0.0773650061257421	0.5830724493184687	0.04422441275900213	-0.1497944865459328	0.5685924034245495	0.03803613357309932	-0.14084834371075994	0.5484272443379193	0.031113085517909478	-0.12752739788711687	0.5160466439111411	0.01642040752346796	-0.10409114342201542	0.6032738989633046	0.05209318889403758	-0.116240502352977	0.5869426995931686	0.04649347775440804	-0.1107691988258846	0.5607784640845641	0.03931540028479441	-0.10012412794352243	0.5244369669768794	0.018432438485358582	-0.08465333560908017	0.6066548168809331	0.04340308393959791	-0.0888888375032989	0.5901797958912405	0.037397617502460845	-0.08470457457398795	0.5672959141716339	0.029867432318099962	-0.07839551382516913	0.532239680019482	0.012001210700341769	-0.06909070828315722	0.6016936828083654	0.02606165155282536	-0.05742340875879215	0.5860944020944208	0.019051906909604233	-0.056698204481100356	0.5664913211887118	0.01154920052456676	-0.056207658964201324	0.5327763636039409	-0.001255450326331009	-0.05573226161070899	0.4622830810018608	-0.023011742144276925	-0.051989820119430985
50	1.6999999999999926	0.4952279359184404	0.006974104212412957	-0.1689580142223785	0.49057320705475027	-0.001367171647851495	-0.1480592913851213	0.48077705299865914	-0.011549613314180807	-0.12032531858241713	0.47559815893985424	-0.022308785108536067	-0.07734498262948136	0.583207850552599	0.044111485040224774	-0.14967895302820217	0.5686839720712962	0.038027785442907525	-0.140732134986577	0.5484738732764962	0.031243354785599586	-0.12740797496199746	0.5161351418068624	0.01644979804820279	-0.10397737061656204	0.6033625750379901	0.05241342505115576	-0.11579089323705044	0.5870651914715639	0.04662846384744146	-0.11041227698746547	0.5608868068549906	0.03932785081800372	-0.0998859871253549	0.5245140344522434	0.018426590955452626	-0.08451371712720351	0.6066969220011498	0.043664609404095556	-0.08842376504860183	0.5902672547262034	0.03745634361479322	-0.08435885802335047	0.5674046654290896	0.029766206965362252	-0.07816662192121582	0.5323389113567658	0.01183188716333794	-0.06903021679786331	0.6016669866181833	0.026072204238059227	-0.05713072739916025	0.5861354652430749	0.018901431395999424	-0.05653754899249802	0.5665397988238392	0.011372644808817056	-0.05616438802092766	0.53285695627837	-0.0015176403814952666	-0.05572836420328675	0.462283081001861	-0.023011742144276925	-0.051989820119430985
